<?xml version="1.0" encoding="UTF-8" standalone="no"?>
<svg
   xmlns:dc="http://purl.org/dc/elements/1.1/"
   xmlns:cc="http://creativecommons.org/ns#"
   xmlns:rdf="http://www.w3.org/1999/02/22-rdf-syntax-ns#"
   xmlns:svg="http://www.w3.org/2000/svg"
   xmlns="http://www.w3.org/2000/svg"
   xmlns:sodipodi="http://sodipodi.sourceforge.net/DTD/sodipodi-0.dtd"
   xmlns:inkscape="http://www.inkscape.org/namespaces/inkscape"
   width="24"
   height="24"
   viewBox="0 0 24 24"
   version="1.1"
   id="svg4"
   sodipodi:docname="police-white.svg"
   inkscape:version="0.92.3 (2405546, 2018-03-11)">
  <metadata
     id="metadata10">
    <rdf:RDF>
      <cc:Work
         rdf:about="">
        <dc:format>image/svg+xml</dc:format>
        <dc:type
           rdf:resource="http://purl.org/dc/dcmitype/StillImage" />
        <dc:title></dc:title>
      </cc:Work>
    </rdf:RDF>
  </metadata>
  <defs
     id="defs8" />
  <sodipodi:namedview
     pagecolor="#ffffff"
     bordercolor="#666666"
     borderopacity="1"
     objecttolerance="10"
     gridtolerance="10"
     guidetolerance="10"
     inkscape:pageopacity="0"
     inkscape:pageshadow="2"
     inkscape:window-width="1920"
     inkscape:window-height="1001"
     id="namedview6"
     showgrid="false"
     inkscape:zoom="9.8333333"
     inkscape:cx="12"
     inkscape:cy="12"
     inkscape:window-x="-9"
     inkscape:window-y="-9"
     inkscape:window-maximized="1"
     inkscape:current-layer="svg4" />
  <path
     d="M20.377 11.082c-.06 1.929-2.229 3.126-8.409 3.126-6.193 0-8.358-1.203-8.409-3.139 1.508 0 4.379-1.958 8.409-1.958 3.927-.001 7.144 1.971 8.409 1.971zm-8.408 4.09c-2.062 0-3.74-.131-5.078-.397.062.555.469 3.322 2.409 3.322 1.721 0 1.673-1.316 2.721-1.316 1.047 0 1.169 1.316 2.852 1.316 2.09 0 2.46-3.063 2.494-3.389-1.387.311-3.169.464-5.398.464zm6.405-.741c-.04 2.171-.717 4.769-2.28 6.437-1.048 1.119-2.377 1.687-3.949 1.687-1.575 0-2.898-.533-3.931-1.582-1.646-1.673-2.302-4.345-2.396-6.461-.523-.158-1.01-.347-1.484-.628-.016 2.472.704 5.942 2.821 8.094 1.321 1.341 3 2.022 4.99 2.022 1.972 0 3.712-.745 5.033-2.153 2.131-2.273 2.76-5.679 2.661-8.111-.459.308-.944.521-1.465.695zm-6.237-10.984l-.313.623-.701.1.507.485-.119.685.626-.324.627.324-.12-.685.507-.485-.7-.1-.314-.623zm7.211-.206s-2.537-.686-7.348-3.241c-4.812 2.555-7.348 3.241-7.348 3.241s-1.295 2.4-3.652 5.016l2.266 1.908c1.533-.165 4.64-2.082 8.734-2.082s7.201 1.917 8.734 2.083l2.266-1.909c-2.357-2.616-3.652-5.016-3.652-5.016zm-6.345 3.214c-.526.131-.605.188-.875.402-.269-.214-.349-.271-.875-.402-.731-.183-1.151-.656-1.151-1.299 0-.359.147-.691.318-1.146.192-.513.083-.675-.119-.882l-.171-.176.987-.819c.098.098.235.278.486.278.248 0 .416-.175.528-.271.102.09.268.271.523.271.248 0 .381-.171.49-.281l.983.823-.172.176c-.202.207-.311.369-.119.882.17.455.318.786.318 1.146 0 .641-.42 1.115-1.151 1.298z"
     id="path2"
     style="fill:#ffffff" />
</svg>
