<?xml version="1.0" encoding="UTF-8" standalone="no"?>
<svg
   xmlns:dc="http://purl.org/dc/elements/1.1/"
   xmlns:cc="http://creativecommons.org/ns#"
   xmlns:rdf="http://www.w3.org/1999/02/22-rdf-syntax-ns#"
   xmlns:svg="http://www.w3.org/2000/svg"
   xmlns="http://www.w3.org/2000/svg"
   xmlns:sodipodi="http://sodipodi.sourceforge.net/DTD/sodipodi-0.dtd"
   xmlns:inkscape="http://www.inkscape.org/namespaces/inkscape"
   width="24"
   height="24"
   viewBox="0 0 24 24"
   version="1.1"
   id="svg4"
   sodipodi:docname="wireless-white.svg"
   inkscape:version="0.92.3 (2405546, 2018-03-11)">
  <metadata
     id="metadata10">
    <rdf:RDF>
      <cc:Work
         rdf:about="">
        <dc:format>image/svg+xml</dc:format>
        <dc:type
           rdf:resource="http://purl.org/dc/dcmitype/StillImage" />
        <dc:title></dc:title>
      </cc:Work>
    </rdf:RDF>
  </metadata>
  <defs
     id="defs8" />
  <sodipodi:namedview
     pagecolor="#ffffff"
     bordercolor="#666666"
     borderopacity="1"
     objecttolerance="10"
     gridtolerance="10"
     guidetolerance="10"
     inkscape:pageopacity="0"
     inkscape:pageshadow="2"
     inkscape:window-width="1920"
     inkscape:window-height="1001"
     id="namedview6"
     showgrid="false"
     inkscape:zoom="9.8333333"
     inkscape:cx="12"
     inkscape:cy="12"
     inkscape:window-x="-9"
     inkscape:window-y="-9"
     inkscape:window-maximized="1"
     inkscape:current-layer="svg4" />
  <path
     d="M0 7.244c3.071-3.24 7.314-5.244 12-5.244 4.687 0 8.929 2.004 12 5.244l-2.039 2.15c-2.549-2.688-6.071-4.352-9.961-4.352s-7.412 1.664-9.961 4.352l-2.039-2.15zm5.72 6.034c1.607-1.696 3.827-2.744 6.28-2.744s4.673 1.048 6.28 2.744l2.093-2.208c-2.143-2.261-5.103-3.659-8.373-3.659s-6.23 1.398-8.373 3.659l2.093 2.208zm3.658 3.859c.671-.708 1.598-1.145 2.622-1.145 1.023 0 1.951.437 2.622 1.145l2.057-2.17c-1.197-1.263-2.851-2.044-4.678-2.044s-3.481.782-4.678 2.044l2.055 2.17zm2.622 1.017c-1.062 0-1.923.861-1.923 1.923s.861 1.923 1.923 1.923 1.923-.861 1.923-1.923-.861-1.923-1.923-1.923z"
     id="path2"
     style="fill:#ffffff" />
</svg>
